<svg width="16" height="16" viewBox="0 0 16 16" fill="none" xmlns="http://www.w3.org/2000/svg">
<path d="M12.9738 3.99C11.6781 3.3425 9.95813 3 8 3C6.04187 3 4.32187 3.3425 3.02625 3.99C1.73062 4.6375 1 5.54875 1 6.5V9.5C1 10.4513 1.73875 11.3656 3.02625 12.01C4.31375 12.6544 6.04187 13 8 13C9.95813 13 11.6781 12.6575 12.9738 12.01C14.2694 11.3625 15 10.4513 15 9.5V6.5C15 5.54875 14.2613 4.63438 12.9738 3.99ZM8 4C11.915 4 14 5.45188 14 6.5C14 7.54813 11.915 9 8 9C4.085 9 2 7.54813 2 6.5C2 5.45188 4.085 4 8 4ZM7.5 9.99125V11.9913C6.3125 11.9525 5.3125 11.7775 4.5 11.5231V9.56563C5.47946 9.82658 6.48661 9.96947 7.5 9.99125ZM8.5 9.99125C9.51339 9.96947 10.5205 9.82658 11.5 9.56563V11.5225C10.6875 11.7769 9.6875 11.9519 8.5 11.9906V9.99125ZM2 9.5V8.34563C2.31466 8.60682 2.65914 8.82983 3.02625 9.01C3.17812 9.08563 3.33875 9.15688 3.5 9.22438V11.125C2.51063 10.635 2 10.0181 2 9.5ZM12.5 11.125V9.22438C12.6631 9.15688 12.8219 9.08563 12.9738 9.01C13.3409 8.82983 13.6853 8.60682 14 8.34563V9.5C14 10.0181 13.4894 10.635 12.5 11.125Z" fill="white"/>
</svg>
