<svg width="61" height="60" viewBox="0 0 61 60" fill="none" xmlns="http://www.w3.org/2000/svg">
<path d="M60.5 30C60.5 46.5685 47.0685 60 30.5 60C13.9315 60 0.5 46.5685 0.5 30C0.5 13.4315 13.9315 0 30.5 0C47.0685 0 60.5 13.4315 60.5 30ZM14 30C14 39.1127 21.3873 46.5 30.5 46.5C39.6127 46.5 47 39.1127 47 30C47 20.8873 39.6127 13.5 30.5 13.5C21.3873 13.5 14 20.8873 14 30Z" fill="white" fill-opacity="0.1"/>
<path d="M60.5 30C60.5 35.9334 58.7405 41.7336 55.4441 46.6671C52.1476 51.6006 47.4623 55.4458 41.9805 57.7164C36.4987 59.987 30.4667 60.5811 24.6473 59.4236C18.8279 58.266 13.4824 55.4088 9.2868 51.2132L18.8327 41.6673C21.1403 43.9748 24.0803 45.5463 27.281 46.183C30.4817 46.8196 33.7993 46.4929 36.8143 45.244C39.8293 43.9952 42.4062 41.8803 44.2192 39.1669C46.0323 36.4535 47 33.2634 47 30H60.5Z" fill="#2F80ED"/>
</svg>
