<svg width="17" height="17" viewBox="0 0 17 17" fill="none" xmlns="http://www.w3.org/2000/svg">
<path d="M14.75 8.50032C14.7499 9.97195 14.2306 11.3964 13.2834 12.5227C12.3362 13.649 11.022 14.4049 9.57219 14.6574C8.12238 14.9098 6.62998 14.6426 5.35785 13.9027C4.08573 13.1629 3.11547 11.9979 2.61797 10.6129C2.12047 9.2279 2.12765 7.71178 2.63823 6.33157C3.14881 4.95136 4.13005 3.79558 5.40912 3.0678C6.68819 2.34002 8.18305 2.08692 9.63041 2.35309C11.0778 2.61925 12.3848 3.38761 13.3212 4.52282C13.384 4.59878 13.4311 4.68635 13.46 4.78053C13.4888 4.8747 13.4988 4.97364 13.4895 5.07169C13.4801 5.16975 13.4515 5.26499 13.4053 5.352C13.3591 5.439 13.2963 5.51605 13.2203 5.57876C13.1444 5.64146 13.0568 5.6886 12.9626 5.71746C12.8684 5.74632 12.7695 5.75635 12.6714 5.74698C12.5734 5.73761 12.4781 5.70901 12.3911 5.66283C12.3041 5.61665 12.2271 5.55378 12.1644 5.47782C11.4732 4.63998 10.5158 4.0643 9.45172 3.84673C8.38761 3.62915 7.28108 3.78282 6.31653 4.28213C5.35199 4.78144 4.58769 5.59623 4.15101 6.5907C3.71433 7.58517 3.63165 8.69926 3.91676 9.7473C4.20186 10.7953 4.83752 11.714 5.7178 12.3502C6.59808 12.9864 7.6698 13.3018 8.75437 13.2436C9.83894 13.1855 10.8708 12.7575 11.6781 12.0308C12.4853 11.3042 13.0192 10.3228 13.1906 9.25032H8.5C8.30109 9.25032 8.11032 9.1713 7.96967 9.03065C7.82902 8.89 7.75 8.69923 7.75 8.50032C7.75 8.30141 7.82902 8.11064 7.96967 7.96999C8.11032 7.82934 8.30109 7.75032 8.5 7.75032H14C14.1989 7.75032 14.3897 7.82934 14.5303 7.96999C14.671 8.11064 14.75 8.30141 14.75 8.50032Z" fill="#111213"/>
</svg>
